<?xml version="1.0" encoding="utf-8"?>
<!-- Generator: Adobe Illustrator 24.1.2, SVG Export Plug-In . SVG Version: 6.00 Build 0)  -->
<svg version="1.1" xmlns="http://www.w3.org/2000/svg" xmlns:xlink="http://www.w3.org/1999/xlink" x="0px" y="0px"
	 viewBox="0 0 317.23 335.28" style="enable-background:new 0 0 317.23 335.28;" xml:space="preserve">
<style type="text/css">
	.st0{fill:#C16328;}
	.st1{fill:#A7A9AC;}
</style>
<g id="Layer_1">
</g>
<g id="Layer_2">
	<g>
		<polygon class="st0" points="77.51,0 133.44,0 222.04,100.59 222.04,162.43 		"/>
		<path class="st0" d="M134,162.43H77.51c5.42-7.59,10.85-17.12,14.95-28.61c2.67-7.43,4.32-14.41,5.33-20.66
			c5.78,13.87,12.71,23.7,16.37,28.49C118.62,147.52,125.06,154.95,134,162.43z"/>
		<path class="st0" d="M192.11,0l47.61,0c-4.57,6.4-9.14,14.43-12.6,24.11c-2.25,6.26-3.64,12.15-4.49,17.42
			c-4.87-11.69-10.72-19.98-13.8-24.02C205.07,12.56,199.64,6.3,192.11,0z"/>
	</g>
	<g>
		<path class="st0" d="M0.27,278.52v-1.48l1.33-0.12c1.55-0.16,2.74-0.35,3.56-0.59c0.82-0.24,1.38-0.78,1.7-1.65
			c0.31-0.86,0.47-2.28,0.47-4.24v-30.42c-0.4-0.43-1-0.91-1.79-1.44c-0.8-0.53-1.97-0.8-3.52-0.8H0v-1.53l12.9,0.18
			c0.8,0.98,1.87,2.28,3.22,3.89c1.35,1.61,2.86,3.4,4.52,5.37c1.66,1.97,3.38,3.98,5.15,6.04c1.77,2.06,3.49,4.06,5.15,5.99
			c1.66,1.93,3.16,3.65,4.49,5.19c1.33,1.54,2.37,2.75,3.12,3.66v-22.29c0-1.96-0.16-3.37-0.47-4.21c-0.31-0.84-0.88-1.4-1.7-1.65
			c-0.82-0.26-2-0.44-3.56-0.56l-1.33-0.12v-1.47l8.64,0.18l8.11-0.18v1.47l-1.33,0.12c-1.51,0.16-2.68,0.36-3.52,0.62
			c-0.84,0.25-1.42,0.8-1.73,1.62s-0.47,2.22-0.47,4.19v34.02h-1.99c-0.71-1.3-1.76-2.9-3.16-4.81c-1.4-1.91-3-4-4.82-6.28
			c-1.82-2.28-3.71-4.61-5.68-6.99c-1.97-2.38-3.93-4.69-5.88-6.93c-1.95-2.24-3.77-4.28-5.45-6.13c-1.68-1.85-3.1-3.38-4.26-4.6
			v27.89c0,1.97,0.16,3.38,0.47,4.24c0.31,0.87,0.89,1.41,1.73,1.65c0.84,0.24,2.02,0.43,3.52,0.59l1.33,0.12v1.48l-8.51-0.24
			L0.27,278.52z"/>
		<path class="st0" d="M75.79,278.93c-5.54,0-9.84-1.08-12.9-3.24c-3.06-2.16-4.59-5.68-4.59-10.55v-20.87
			c0-1.96-0.16-3.36-0.47-4.19c-0.31-0.83-0.88-1.37-1.7-1.62c-0.82-0.26-2-0.46-3.56-0.62l-1.33-0.12v-1.47l9.84,0.18h0.07
			l9.84-0.18v1.47l-1.33,0.12c-1.51,0.16-2.68,0.36-3.52,0.62c-0.84,0.25-1.42,0.8-1.73,1.62c-0.31,0.83-0.47,2.22-0.47,4.19v20.87
			c0,3.97,1.22,6.94,3.66,8.9c2.44,1.97,5.58,2.95,9.44,2.95c4.48,0,7.71-1.09,9.71-3.27c2-2.18,2.99-5.16,2.99-8.93v-20.52
			c0-1.96-0.16-3.36-0.47-4.19c-0.31-0.83-0.88-1.37-1.7-1.62c-0.82-0.26-2.01-0.46-3.56-0.62l-1.33-0.12v-1.47l9.84,0.12l6.58-0.12
			v1.47l-1.33,0.12c-1.51,0.16-2.68,0.36-3.52,0.62c-0.84,0.25-1.42,0.8-1.73,1.62c-0.31,0.83-0.47,2.22-0.47,4.19v20.52
			c0,4.56-1.35,8.06-4.05,10.49C85.31,277.71,81.24,278.93,75.79,278.93z"/>
		<path class="st0" d="M125.38,278.93c-4.52,0-8.41-0.92-11.67-2.77c-3.26-1.85-5.76-4.39-7.51-7.64
			c-1.75-3.24-2.63-6.97-2.63-11.17c0-3.14,0.58-6.03,1.73-8.67c1.15-2.63,2.75-4.93,4.79-6.9s4.4-3.49,7.08-4.57
			c2.68-1.08,5.55-1.62,8.61-1.62c2.7,0,4.93,0.27,6.68,0.8c1.75,0.53,3.07,1,3.96,1.39c0.58,0.24,1.11,0.44,1.6,0.62
			c0.49,0.18,0.82,0.26,1,0.26c0.49,0,0.89-0.17,1.2-0.5c0.31-0.33,0.51-0.92,0.6-1.74h1.66l-0.13,6.9l0.13,6.9h-1.66
			c-0.66-4.09-2.26-7.25-4.79-9.49c-2.53-2.24-5.87-3.36-10.04-3.36c-2.92,0-5.38,0.52-7.38,1.56c-1.99,1.04-3.59,2.48-4.79,4.3
			c-1.2,1.83-2.07,3.95-2.63,6.37c-0.55,2.42-0.83,5-0.83,7.75c0,4.13,0.5,7.67,1.5,10.61c1,2.95,2.64,5.22,4.92,6.81
			c2.28,1.59,5.35,2.39,9.21,2.39c2.88,0,5.39-0.59,7.51-1.77c2.13-1.18,3.84-2.75,5.15-4.72c1.31-1.97,2.09-4.13,2.36-6.48h1.6
			l-0.13,7.19l0.2,6.9h-1.6l-0.2-0.65c-0.18-0.51-0.39-0.99-0.63-1.44c-0.24-0.45-0.65-0.68-1.23-0.68c-0.31,0-0.68,0.08-1.1,0.24
			c-0.42,0.16-0.9,0.35-1.43,0.59c-1.15,0.51-2.66,1.07-4.52,1.68C130.1,278.63,127.9,278.93,125.38,278.93z"/>
		<path class="st0" d="M149.97,278.46v-1.48l1.33-0.12c1.55-0.16,2.74-0.35,3.56-0.59c0.82-0.24,1.38-0.79,1.7-1.65
			c0.31-0.86,0.47-2.26,0.47-4.19v-26.18c0-1.96-0.16-3.37-0.47-4.21c-0.31-0.84-0.87-1.4-1.7-1.65c-0.82-0.26-2-0.44-3.56-0.56
			l-1.33-0.12v-1.47l9.97,0.18l8.58-0.18v1.35l-1.07,0.12c-1.29,0.12-2.27,0.3-2.96,0.53c-0.69,0.24-1.16,0.74-1.43,1.5
			c-0.27,0.77-0.4,2.03-0.4,3.8v24.59c0,1.93,0.12,3.52,0.36,4.78c0.24,1.26,0.92,2.18,2.03,2.77c1.11,0.59,2.9,0.88,5.39,0.88h4.98
			c3.86,0,6.64-0.91,8.34-2.74c1.7-1.83,2.71-4.47,3.02-7.93h1.46l-0.66,12.56l-27.79-0.18L149.97,278.46z"/>
		<path class="st0" d="M193.25,278.46v-1.48l1.33-0.12c1.55-0.16,2.74-0.36,3.56-0.62c0.82-0.26,1.38-0.81,1.7-1.65
			c0.31-0.84,0.47-2.23,0.47-4.16v-26.18c0-1.96-0.16-3.36-0.47-4.19c-0.31-0.83-0.87-1.37-1.7-1.62c-0.82-0.26-2-0.46-3.56-0.62
			l-1.33-0.12v-1.47l9.84,0.18h25.79l0.13,4.24l0.53,5.43h-1.6c-0.31-1.77-0.72-3.18-1.23-4.24c-0.51-1.06-1.23-1.86-2.16-2.39
			c-0.93-0.53-2.18-0.89-3.76-1.06c-1.57-0.18-3.6-0.27-6.08-0.27h-8.78v17.27h7.45c0.89,0,1.66-0.18,2.33-0.56
			c0.66-0.37,1.21-1.07,1.63-2.09c0.42-1.02,0.68-2.5,0.76-4.42h1.66l-0.2,7.9l0.2,8.72h-1.66c0-2.87-0.4-4.9-1.2-6.1
			c-0.8-1.2-1.97-1.8-3.52-1.8h-7.45v14.92c0,1.89,0.47,3.13,1.4,3.75c0.93,0.61,2.66,0.91,5.19,0.91h6.18
			c2.57,0,4.58-0.26,6.02-0.77c1.44-0.51,2.51-1.54,3.22-3.1c0.71-1.55,1.2-3.84,1.46-6.87h1.66l-0.47,7.08l-0.2,5.31h-27.32
			L193.25,278.46z"/>
		<path class="st0" d="M259.93,278.93c-5.54,0-9.84-1.08-12.9-3.24c-3.06-2.16-4.59-5.68-4.59-10.55v-20.87
			c0-1.96-0.16-3.36-0.47-4.19c-0.31-0.83-0.88-1.37-1.7-1.62c-0.82-0.26-2-0.46-3.56-0.62l-1.33-0.12v-1.47l9.84,0.18h0.07
			l9.84-0.18v1.47l-1.33,0.12c-1.51,0.16-2.68,0.36-3.52,0.62c-0.84,0.25-1.42,0.8-1.73,1.62c-0.31,0.83-0.47,2.22-0.47,4.19v20.87
			c0,3.97,1.22,6.94,3.66,8.9s5.58,2.95,9.44,2.95c4.48,0,7.71-1.09,9.71-3.27c2-2.18,2.99-5.16,2.99-8.93v-20.52
			c0-1.96-0.16-3.36-0.47-4.19c-0.31-0.83-0.88-1.37-1.7-1.62c-0.82-0.26-2.01-0.46-3.56-0.62l-1.33-0.12v-1.47l9.84,0.12l6.58-0.12
			v1.47l-1.33,0.12c-1.51,0.16-2.68,0.36-3.52,0.62c-0.84,0.25-1.42,0.8-1.73,1.62c-0.31,0.83-0.47,2.22-0.47,4.19v20.52
			c0,4.56-1.35,8.06-4.05,10.49C269.46,277.71,265.38,278.93,259.93,278.93z"/>
		<path class="st0" d="M304.14,278.93c-1.77,0-3.38-0.26-4.82-0.77s-2.74-1.02-3.89-1.53c-0.98-0.47-1.78-0.83-2.43-1.06
			c-0.64-0.24-1.21-0.35-1.7-0.35c-0.62,0-1.05,0.22-1.3,0.68s-0.43,0.95-0.56,1.5l-0.2,0.89h-1.66l0.33-6.96l-0.2-7.61h1.66
			l0.73,2.77c0.49,1.73,1.36,3.42,2.63,5.07c1.26,1.65,2.86,3.01,4.79,4.07s4.13,1.59,6.61,1.59c1.37,0,2.69-0.27,3.96-0.8
			c1.26-0.53,2.3-1.35,3.13-2.45c0.82-1.1,1.23-2.53,1.23-4.3c0-2.63-0.96-4.75-2.89-6.37c-1.93-1.61-4.6-3.15-8.01-4.6l-2.79-1.18
			c-3.32-1.42-5.79-2.98-7.41-4.69s-2.43-3.9-2.43-6.58c0-2.08,0.58-3.93,1.73-5.54c1.15-1.61,2.74-2.87,4.75-3.77
			c2.02-0.9,4.33-1.36,6.95-1.36c1.82,0,3.35,0.22,4.59,0.65c1.24,0.43,2.22,0.81,2.92,1.12c1.15,0.51,2.06,0.77,2.73,0.77
			c0.71,0,1.13-0.61,1.26-1.83h1.66l-0.2,5.66l0.13,5.72h-1.66c-0.27-2.2-0.95-4.08-2.06-5.63c-1.11-1.55-2.45-2.74-4.02-3.57
			c-1.57-0.83-3.25-1.24-5.02-1.24c-2.62,0-4.73,0.67-6.35,2c-1.62,1.34-2.43,3.05-2.43,5.13c0,2.24,0.82,4,2.46,5.28
			c1.64,1.28,3.77,2.49,6.38,3.62l2.73,1.18c2.44,1.06,4.53,2.15,6.28,3.27c1.75,1.12,3.1,2.43,4.05,3.92
			c0.95,1.49,1.43,3.36,1.43,5.6c0,2.32-0.59,4.36-1.76,6.13s-2.75,3.14-4.72,4.1C308.78,278.45,306.57,278.93,304.14,278.93z"/>
	</g>
	<g>
		<path class="st1" d="M68.64,327.16c0,0.86-0.16,1.62-0.48,2.27c-0.32,0.65-0.76,1.2-1.31,1.63c-0.55,0.44-1.19,0.77-1.93,0.99
			c-0.74,0.22-1.52,0.33-2.36,0.33c-0.57,0-1.09-0.05-1.58-0.14c-0.49-0.09-0.92-0.21-1.29-0.34c-0.37-0.13-0.68-0.27-0.93-0.41
			c-0.25-0.14-0.43-0.27-0.54-0.38c-0.11-0.11-0.19-0.27-0.24-0.48c-0.05-0.21-0.07-0.5-0.07-0.89c0-0.26,0.01-0.48,0.03-0.66
			s0.04-0.32,0.08-0.43c0.04-0.11,0.09-0.19,0.15-0.23c0.06-0.05,0.14-0.07,0.22-0.07c0.12,0,0.29,0.07,0.5,0.21
			c0.22,0.14,0.49,0.3,0.83,0.46s0.74,0.32,1.21,0.46c0.47,0.14,1.01,0.21,1.63,0.21c0.41,0,0.77-0.05,1.09-0.15
			c0.32-0.1,0.6-0.23,0.82-0.41c0.22-0.18,0.4-0.4,0.51-0.66c0.12-0.26,0.18-0.56,0.18-0.88c0-0.37-0.1-0.69-0.3-0.96
			c-0.2-0.27-0.47-0.5-0.79-0.71c-0.33-0.21-0.7-0.4-1.11-0.58c-0.41-0.18-0.84-0.38-1.28-0.58s-0.87-0.43-1.28-0.69
			c-0.41-0.26-0.79-0.57-1.11-0.93c-0.33-0.36-0.59-0.78-0.79-1.28c-0.2-0.49-0.3-1.08-0.3-1.77c0-0.79,0.15-1.48,0.44-2.08
			c0.29-0.6,0.69-1.09,1.18-1.49c0.5-0.39,1.08-0.69,1.75-0.88s1.39-0.29,2.14-0.29c0.39,0,0.78,0.03,1.17,0.09s0.75,0.14,1.09,0.24
			c0.34,0.1,0.64,0.22,0.9,0.34s0.44,0.23,0.52,0.32s0.14,0.16,0.17,0.22s0.06,0.14,0.08,0.24c0.02,0.1,0.04,0.22,0.04,0.37
			c0.01,0.15,0.01,0.33,0.01,0.55c0,0.25-0.01,0.45-0.02,0.62c-0.01,0.17-0.03,0.31-0.06,0.42c-0.03,0.11-0.07,0.19-0.13,0.24
			c-0.06,0.05-0.13,0.08-0.22,0.08s-0.24-0.06-0.44-0.18c-0.2-0.12-0.45-0.25-0.75-0.39c-0.3-0.14-0.64-0.27-1.03-0.38
			c-0.39-0.11-0.82-0.17-1.28-0.17c-0.36,0-0.68,0.04-0.95,0.13c-0.27,0.09-0.5,0.21-0.68,0.37c-0.18,0.16-0.32,0.35-0.41,0.57
			c-0.09,0.22-0.13,0.45-0.13,0.7c0,0.36,0.1,0.68,0.3,0.95c0.2,0.27,0.47,0.5,0.8,0.71c0.33,0.21,0.71,0.4,1.14,0.58
			c0.42,0.18,0.86,0.38,1.3,0.58c0.44,0.2,0.87,0.43,1.3,0.69c0.42,0.26,0.8,0.57,1.13,0.93c0.33,0.36,0.6,0.78,0.8,1.27
			C68.54,325.92,68.64,326.49,68.64,327.16z"/>
		<path class="st1" d="M82.42,325.82c0,1.01-0.11,1.92-0.32,2.72c-0.22,0.81-0.53,1.5-0.95,2.07c-0.41,0.57-0.93,1-1.55,1.31
			c-0.62,0.3-1.33,0.46-2.12,0.46c-0.33,0-0.63-0.03-0.91-0.1c-0.28-0.06-0.54-0.16-0.8-0.29c-0.26-0.13-0.51-0.3-0.77-0.49
			c-0.25-0.19-0.52-0.42-0.79-0.69v5.34c0,0.09-0.03,0.16-0.08,0.23s-0.14,0.13-0.26,0.17c-0.12,0.05-0.29,0.08-0.49,0.11
			c-0.2,0.03-0.46,0.04-0.78,0.04c-0.31,0-0.57-0.01-0.78-0.04c-0.2-0.03-0.37-0.06-0.49-0.11c-0.12-0.05-0.21-0.1-0.26-0.17
			c-0.05-0.07-0.08-0.14-0.08-0.23v-15.83c0-0.09,0.02-0.16,0.06-0.22c0.04-0.07,0.12-0.12,0.22-0.16c0.11-0.04,0.25-0.07,0.42-0.09
			c0.17-0.02,0.39-0.03,0.65-0.03c0.25,0,0.47,0.01,0.64,0.03c0.17,0.02,0.31,0.05,0.42,0.09c0.11,0.04,0.18,0.09,0.22,0.16
			c0.04,0.06,0.06,0.14,0.06,0.22v1.33c0.33-0.34,0.65-0.64,0.97-0.89c0.32-0.26,0.64-0.48,0.97-0.65c0.33-0.17,0.67-0.3,1.02-0.39
			c0.35-0.09,0.73-0.13,1.12-0.13c0.83,0,1.54,0.16,2.12,0.49c0.58,0.33,1.06,0.77,1.43,1.34c0.37,0.57,0.64,1.23,0.81,1.98
			C82.33,324.16,82.42,324.97,82.42,325.82z M79.09,326.05c0-0.48-0.04-0.95-0.11-1.39c-0.07-0.44-0.2-0.84-0.37-1.19
			s-0.4-0.62-0.69-0.83c-0.28-0.21-0.64-0.31-1.06-0.31c-0.21,0-0.42,0.03-0.63,0.09c-0.21,0.07-0.42,0.17-0.64,0.31
			c-0.22,0.14-0.44,0.33-0.67,0.56c-0.23,0.23-0.47,0.51-0.72,0.85v3.74c0.45,0.57,0.88,1.01,1.28,1.32
			c0.41,0.31,0.83,0.46,1.27,0.46c0.41,0,0.77-0.11,1.06-0.32c0.29-0.21,0.53-0.49,0.72-0.83c0.19-0.34,0.32-0.73,0.41-1.16
			C79.04,326.91,79.09,326.48,79.09,326.05z"/>
		<path class="st1" d="M96.43,325.87c0,0.97-0.13,1.85-0.38,2.64c-0.25,0.8-0.64,1.48-1.16,2.06c-0.52,0.58-1.16,1.02-1.94,1.33
			s-1.69,0.47-2.73,0.47c-1.01,0-1.89-0.14-2.63-0.42c-0.75-0.28-1.36-0.69-1.86-1.22s-0.86-1.19-1.09-1.97
			c-0.24-0.78-0.36-1.67-0.36-2.67c0-0.97,0.13-1.85,0.39-2.65c0.26-0.8,0.65-1.49,1.16-2.06c0.52-0.57,1.16-1.01,1.94-1.33
			c0.78-0.31,1.68-0.47,2.73-0.47c1.02,0,1.9,0.14,2.64,0.41c0.75,0.28,1.36,0.68,1.85,1.21s0.85,1.19,1.09,1.97
			C96.31,323.97,96.43,324.86,96.43,325.87z M93.14,326c0-0.56-0.04-1.07-0.13-1.54c-0.09-0.47-0.24-0.88-0.45-1.23
			c-0.21-0.35-0.49-0.62-0.85-0.81s-0.79-0.29-1.33-0.29c-0.47,0-0.89,0.09-1.25,0.26c-0.36,0.17-0.65,0.43-0.88,0.76
			c-0.23,0.33-0.4,0.74-0.51,1.21c-0.11,0.47-0.17,1.01-0.17,1.61c0,0.56,0.05,1.07,0.14,1.54c0.09,0.47,0.24,0.88,0.45,1.23
			c0.21,0.35,0.49,0.62,0.85,0.81c0.36,0.19,0.8,0.29,1.32,0.29c0.48,0,0.9-0.09,1.26-0.26c0.36-0.17,0.65-0.42,0.88-0.76
			c0.23-0.33,0.4-0.73,0.51-1.2C93.09,327.14,93.14,326.6,93.14,326z"/>
		<path class="st1" d="M106.24,321.37c0,0.3-0.01,0.56-0.03,0.75s-0.04,0.35-0.08,0.46s-0.08,0.19-0.13,0.23
			c-0.06,0.04-0.13,0.06-0.21,0.06c-0.07,0-0.14-0.01-0.23-0.05c-0.08-0.03-0.18-0.06-0.29-0.09c-0.11-0.03-0.22-0.07-0.35-0.09
			c-0.13-0.03-0.27-0.05-0.42-0.05c-0.18,0-0.36,0.04-0.53,0.11c-0.18,0.07-0.36,0.19-0.55,0.34c-0.19,0.15-0.39,0.36-0.6,0.61
			c-0.21,0.25-0.43,0.57-0.67,0.94v7.07c0,0.09-0.03,0.16-0.08,0.22c-0.05,0.07-0.14,0.12-0.26,0.16s-0.29,0.07-0.49,0.09
			c-0.2,0.02-0.46,0.03-0.78,0.03c-0.31,0-0.57-0.01-0.78-0.03c-0.2-0.02-0.37-0.05-0.49-0.09c-0.12-0.04-0.21-0.09-0.26-0.16
			c-0.05-0.06-0.08-0.14-0.08-0.22v-11.34c0-0.09,0.02-0.16,0.06-0.22c0.04-0.07,0.12-0.12,0.23-0.16c0.11-0.04,0.25-0.07,0.43-0.09
			c0.17-0.02,0.39-0.03,0.65-0.03c0.27,0,0.5,0.01,0.67,0.03c0.18,0.02,0.32,0.05,0.41,0.09c0.1,0.04,0.17,0.09,0.21,0.16
			c0.04,0.06,0.06,0.14,0.06,0.22v1.41c0.3-0.42,0.58-0.77,0.84-1.05c0.26-0.28,0.51-0.49,0.75-0.66c0.24-0.16,0.47-0.27,0.71-0.34
			c0.24-0.07,0.47-0.1,0.71-0.1c0.11,0,0.23,0.01,0.36,0.02c0.13,0.01,0.26,0.03,0.39,0.06c0.14,0.03,0.25,0.07,0.36,0.1
			c0.1,0.04,0.18,0.08,0.22,0.12c0.05,0.04,0.08,0.09,0.1,0.14c0.02,0.05,0.04,0.12,0.06,0.21c0.02,0.09,0.03,0.22,0.04,0.4
			C106.24,320.83,106.24,321.07,106.24,321.37z"/>
		<path class="st1" d="M114.92,330.54c0,0.37-0.02,0.66-0.07,0.86c-0.05,0.2-0.11,0.34-0.18,0.42c-0.08,0.08-0.19,0.15-0.34,0.21
			c-0.15,0.07-0.32,0.12-0.52,0.17c-0.2,0.05-0.41,0.08-0.65,0.11c-0.23,0.03-0.47,0.04-0.71,0.04c-0.64,0-1.19-0.08-1.65-0.24
			s-0.85-0.41-1.16-0.74c-0.3-0.34-0.53-0.76-0.67-1.27c-0.14-0.51-0.22-1.11-0.22-1.8v-5.81h-1.36c-0.16,0-0.28-0.1-0.37-0.3
			c-0.08-0.2-0.13-0.53-0.13-1c0-0.25,0.01-0.45,0.03-0.62s0.05-0.3,0.1-0.4c0.04-0.1,0.1-0.17,0.16-0.21
			c0.06-0.04,0.14-0.06,0.22-0.06h1.35v-2.53c0-0.09,0.02-0.16,0.07-0.23c0.05-0.07,0.13-0.13,0.25-0.17
			c0.12-0.05,0.29-0.08,0.5-0.1c0.21-0.02,0.46-0.03,0.77-0.03c0.31,0,0.57,0.01,0.78,0.03c0.21,0.02,0.37,0.06,0.49,0.1
			c0.12,0.05,0.2,0.11,0.25,0.17c0.05,0.07,0.08,0.14,0.08,0.23v2.53h2.47c0.08,0,0.16,0.02,0.22,0.06
			c0.06,0.04,0.12,0.11,0.16,0.21c0.04,0.1,0.07,0.23,0.1,0.4s0.03,0.38,0.03,0.62c0,0.47-0.04,0.8-0.13,1
			c-0.08,0.2-0.21,0.3-0.37,0.3h-2.48v5.32c0,0.62,0.1,1.08,0.29,1.39c0.2,0.31,0.54,0.46,1.04,0.46c0.17,0,0.32-0.01,0.46-0.05
			c0.14-0.03,0.26-0.06,0.36-0.1c0.11-0.04,0.2-0.07,0.27-0.1c0.07-0.03,0.14-0.04,0.2-0.04c0.05,0,0.1,0.01,0.15,0.04
			c0.05,0.03,0.08,0.09,0.11,0.18c0.03,0.09,0.05,0.21,0.07,0.36S114.92,330.3,114.92,330.54z"/>
		<path class="st1" d="M134.57,320.64c0,0.92-0.14,1.74-0.43,2.45c-0.29,0.71-0.71,1.31-1.26,1.8c-0.55,0.49-1.23,0.86-2.03,1.11
			c-0.8,0.25-1.74,0.38-2.83,0.38h-1.37v5.25c0,0.09-0.03,0.16-0.08,0.23c-0.06,0.07-0.15,0.12-0.27,0.17
			c-0.13,0.04-0.3,0.08-0.51,0.1c-0.21,0.03-0.48,0.04-0.81,0.04c-0.32,0-0.59-0.01-0.81-0.04c-0.22-0.03-0.39-0.06-0.51-0.1
			c-0.13-0.04-0.22-0.1-0.27-0.17c-0.05-0.07-0.08-0.14-0.08-0.23v-14.79c0-0.4,0.1-0.7,0.31-0.9c0.21-0.2,0.48-0.3,0.82-0.3h3.88
			c0.39,0,0.76,0.01,1.11,0.04c0.35,0.03,0.77,0.09,1.26,0.19c0.49,0.1,0.99,0.28,1.49,0.54c0.5,0.26,0.93,0.6,1.29,1
			c0.36,0.4,0.63,0.87,0.81,1.41C134.47,319.36,134.57,319.97,134.57,320.64z M131.07,320.88c0-0.58-0.1-1.05-0.3-1.42
			s-0.45-0.65-0.75-0.83c-0.3-0.18-0.61-0.29-0.93-0.34c-0.33-0.05-0.66-0.07-1.01-0.07h-1.42v5.58h1.5c0.53,0,0.98-0.07,1.34-0.22
			s0.65-0.34,0.88-0.6c0.23-0.26,0.4-0.57,0.52-0.93C131.01,321.69,131.07,321.3,131.07,320.88z"/>
		<path class="st1" d="M147.02,325.66c0,0.39-0.09,0.68-0.26,0.86c-0.17,0.19-0.41,0.28-0.72,0.28h-6.9c0,0.48,0.06,0.92,0.17,1.31
			c0.11,0.4,0.3,0.73,0.55,1.01c0.25,0.27,0.57,0.48,0.97,0.63c0.39,0.14,0.87,0.22,1.42,0.22c0.56,0,1.05-0.04,1.47-0.12
			c0.42-0.08,0.79-0.17,1.1-0.27c0.31-0.1,0.57-0.19,0.77-0.27c0.2-0.08,0.37-0.12,0.5-0.12c0.08,0,0.14,0.01,0.19,0.04
			c0.05,0.03,0.09,0.08,0.13,0.16s0.06,0.19,0.07,0.32c0.01,0.14,0.02,0.32,0.02,0.53c0,0.19,0,0.34-0.01,0.48
			c-0.01,0.13-0.02,0.24-0.04,0.34s-0.04,0.17-0.08,0.23c-0.03,0.07-0.08,0.13-0.13,0.19c-0.06,0.06-0.21,0.14-0.45,0.24
			s-0.56,0.2-0.94,0.3c-0.38,0.1-0.82,0.18-1.31,0.25c-0.49,0.07-1.02,0.11-1.58,0.11c-1.01,0-1.89-0.13-2.65-0.38
			s-1.39-0.64-1.9-1.16s-0.89-1.17-1.14-1.96c-0.25-0.79-0.37-1.71-0.37-2.77c0-1.01,0.13-1.92,0.39-2.73
			c0.26-0.81,0.64-1.49,1.14-2.06c0.5-0.56,1.11-0.99,1.82-1.29c0.72-0.3,1.52-0.44,2.42-0.44c0.95,0,1.76,0.14,2.43,0.42
			s1.23,0.67,1.66,1.16c0.43,0.5,0.75,1.08,0.95,1.76c0.2,0.68,0.3,1.41,0.3,2.21V325.66z M143.92,324.74
			c0.03-0.9-0.15-1.6-0.54-2.12c-0.39-0.51-0.98-0.77-1.79-0.77c-0.41,0-0.76,0.08-1.06,0.23c-0.3,0.15-0.55,0.36-0.75,0.62
			c-0.2,0.26-0.35,0.56-0.46,0.91c-0.11,0.35-0.17,0.73-0.18,1.13H143.92z"/>
		<path class="st1" d="M156.93,321.37c0,0.3-0.01,0.56-0.03,0.75s-0.04,0.35-0.08,0.46s-0.08,0.19-0.13,0.23
			c-0.06,0.04-0.13,0.06-0.21,0.06c-0.07,0-0.14-0.01-0.23-0.05c-0.08-0.03-0.18-0.06-0.29-0.09s-0.22-0.07-0.35-0.09
			c-0.13-0.03-0.27-0.05-0.42-0.05c-0.18,0-0.36,0.04-0.53,0.11c-0.18,0.07-0.36,0.19-0.55,0.34c-0.19,0.15-0.39,0.36-0.6,0.61
			s-0.43,0.57-0.67,0.94v7.07c0,0.09-0.03,0.16-0.08,0.22c-0.05,0.07-0.14,0.12-0.26,0.16c-0.12,0.04-0.29,0.07-0.49,0.09
			c-0.2,0.02-0.46,0.03-0.78,0.03c-0.31,0-0.57-0.01-0.78-0.03c-0.2-0.02-0.37-0.05-0.49-0.09s-0.21-0.09-0.26-0.16
			c-0.05-0.06-0.08-0.14-0.08-0.22v-11.34c0-0.09,0.02-0.16,0.06-0.22c0.04-0.07,0.12-0.12,0.23-0.16s0.25-0.07,0.43-0.09
			c0.17-0.02,0.39-0.03,0.65-0.03c0.27,0,0.5,0.01,0.67,0.03c0.18,0.02,0.32,0.05,0.41,0.09s0.17,0.09,0.21,0.16
			c0.04,0.06,0.06,0.14,0.06,0.22v1.41c0.3-0.42,0.58-0.77,0.84-1.05c0.26-0.28,0.51-0.49,0.75-0.66s0.47-0.27,0.71-0.34
			c0.24-0.07,0.47-0.1,0.71-0.1c0.11,0,0.23,0.01,0.36,0.02c0.13,0.01,0.26,0.03,0.39,0.06c0.14,0.03,0.25,0.07,0.36,0.1
			c0.1,0.04,0.18,0.08,0.22,0.12s0.08,0.09,0.1,0.14c0.02,0.05,0.04,0.12,0.06,0.21c0.02,0.09,0.03,0.22,0.04,0.4
			C156.93,320.83,156.93,321.07,156.93,321.37z"/>
		<path class="st1" d="M165.74,316c0,0.25-0.01,0.44-0.03,0.59c-0.02,0.15-0.04,0.26-0.08,0.34c-0.03,0.08-0.07,0.14-0.11,0.17
			c-0.04,0.03-0.09,0.04-0.14,0.04c-0.06,0-0.13-0.01-0.2-0.04c-0.07-0.03-0.16-0.06-0.27-0.1s-0.23-0.07-0.37-0.1
			c-0.14-0.03-0.31-0.04-0.51-0.04c-0.23,0-0.43,0.04-0.59,0.11c-0.17,0.07-0.3,0.19-0.41,0.34c-0.11,0.16-0.19,0.36-0.24,0.61
			c-0.05,0.25-0.08,0.56-0.08,0.92v1.04h2.07c0.08,0,0.15,0.02,0.21,0.06c0.06,0.04,0.12,0.11,0.16,0.21c0.04,0.1,0.07,0.23,0.1,0.4
			s0.03,0.38,0.03,0.62c0,0.47-0.04,0.8-0.13,1c-0.08,0.2-0.21,0.3-0.37,0.3h-2.07v9.17c0,0.09-0.03,0.16-0.08,0.22
			c-0.05,0.07-0.14,0.12-0.25,0.16c-0.12,0.04-0.28,0.07-0.5,0.09c-0.21,0.02-0.47,0.03-0.78,0.03c-0.3,0-0.56-0.01-0.77-0.03
			c-0.21-0.02-0.37-0.05-0.5-0.09c-0.12-0.04-0.21-0.09-0.25-0.16c-0.05-0.06-0.07-0.14-0.07-0.22v-9.17h-1.42
			c-0.16,0-0.28-0.1-0.36-0.3c-0.08-0.2-0.12-0.53-0.12-1c0-0.25,0.01-0.45,0.03-0.62s0.05-0.3,0.09-0.4
			c0.04-0.1,0.09-0.17,0.15-0.21c0.06-0.04,0.14-0.06,0.22-0.06h1.41v-0.95c0-0.77,0.08-1.45,0.23-2.03
			c0.15-0.58,0.39-1.06,0.72-1.45c0.33-0.38,0.74-0.68,1.25-0.87s1.1-0.29,1.79-0.29c0.33,0,0.64,0.03,0.94,0.08
			c0.3,0.05,0.53,0.11,0.7,0.18c0.17,0.06,0.28,0.12,0.34,0.18c0.06,0.05,0.11,0.13,0.15,0.24c0.04,0.11,0.07,0.24,0.08,0.41
			C165.73,315.55,165.74,315.75,165.74,316z"/>
		<path class="st1" d="M178.21,325.87c0,0.97-0.13,1.85-0.38,2.64c-0.25,0.8-0.64,1.48-1.16,2.06c-0.52,0.58-1.16,1.02-1.94,1.33
			c-0.78,0.31-1.69,0.47-2.73,0.47c-1.01,0-1.89-0.14-2.63-0.42c-0.75-0.28-1.36-0.69-1.86-1.22s-0.86-1.19-1.09-1.97
			c-0.24-0.78-0.36-1.67-0.36-2.67c0-0.97,0.13-1.85,0.39-2.65c0.26-0.8,0.65-1.49,1.16-2.06c0.52-0.57,1.16-1.01,1.94-1.33
			c0.78-0.31,1.68-0.47,2.73-0.47c1.02,0,1.9,0.14,2.64,0.41c0.75,0.28,1.36,0.68,1.85,1.21s0.85,1.19,1.09,1.97
			C178.09,323.97,178.21,324.86,178.21,325.87z M174.91,326c0-0.56-0.04-1.07-0.13-1.54c-0.09-0.47-0.24-0.88-0.45-1.23
			c-0.21-0.35-0.49-0.62-0.85-0.81s-0.79-0.29-1.33-0.29c-0.47,0-0.89,0.09-1.25,0.26c-0.36,0.17-0.65,0.43-0.88,0.76
			c-0.23,0.33-0.4,0.74-0.51,1.21c-0.11,0.47-0.17,1.01-0.17,1.61c0,0.56,0.05,1.07,0.14,1.54c0.09,0.47,0.24,0.88,0.45,1.23
			c0.21,0.35,0.49,0.62,0.85,0.81c0.36,0.19,0.8,0.29,1.32,0.29c0.48,0,0.9-0.09,1.26-0.26c0.36-0.17,0.65-0.42,0.88-0.76
			c0.23-0.33,0.4-0.73,0.51-1.2C174.86,327.14,174.91,326.6,174.91,326z"/>
		<path class="st1" d="M188.02,321.37c0,0.3-0.01,0.56-0.03,0.75s-0.04,0.35-0.08,0.46s-0.08,0.19-0.13,0.23
			c-0.06,0.04-0.13,0.06-0.21,0.06c-0.07,0-0.14-0.01-0.23-0.05c-0.08-0.03-0.18-0.06-0.29-0.09s-0.22-0.07-0.35-0.09
			c-0.13-0.03-0.27-0.05-0.42-0.05c-0.18,0-0.36,0.04-0.53,0.11c-0.18,0.07-0.36,0.19-0.55,0.34c-0.19,0.15-0.39,0.36-0.6,0.61
			c-0.21,0.25-0.43,0.57-0.67,0.94v7.07c0,0.09-0.03,0.16-0.08,0.22c-0.05,0.07-0.14,0.12-0.26,0.16c-0.12,0.04-0.29,0.07-0.49,0.09
			c-0.2,0.02-0.46,0.03-0.78,0.03c-0.31,0-0.57-0.01-0.78-0.03c-0.2-0.02-0.37-0.05-0.49-0.09c-0.12-0.04-0.21-0.09-0.26-0.16
			c-0.05-0.06-0.08-0.14-0.08-0.22v-11.34c0-0.09,0.02-0.16,0.06-0.22c0.04-0.07,0.12-0.12,0.23-0.16c0.11-0.04,0.25-0.07,0.43-0.09
			c0.17-0.02,0.39-0.03,0.65-0.03c0.27,0,0.5,0.01,0.67,0.03c0.18,0.02,0.32,0.05,0.41,0.09s0.17,0.09,0.21,0.16
			c0.04,0.06,0.06,0.14,0.06,0.22v1.41c0.3-0.42,0.58-0.77,0.84-1.05c0.26-0.28,0.51-0.49,0.75-0.66s0.47-0.27,0.71-0.34
			c0.24-0.07,0.47-0.1,0.71-0.1c0.11,0,0.23,0.01,0.36,0.02c0.13,0.01,0.26,0.03,0.39,0.06c0.14,0.03,0.25,0.07,0.36,0.1
			c0.1,0.04,0.18,0.08,0.22,0.12c0.05,0.04,0.08,0.09,0.1,0.14c0.02,0.05,0.04,0.12,0.06,0.21c0.02,0.09,0.03,0.22,0.04,0.4
			C188.01,320.83,188.02,321.07,188.02,321.37z"/>
		<path class="st1" d="M208.02,331.65c0,0.09-0.03,0.16-0.08,0.22c-0.05,0.07-0.14,0.12-0.25,0.16c-0.12,0.04-0.28,0.07-0.48,0.09
			c-0.2,0.02-0.46,0.03-0.78,0.03c-0.32,0-0.58-0.01-0.79-0.03c-0.2-0.02-0.37-0.05-0.49-0.09c-0.12-0.04-0.21-0.09-0.25-0.16
			c-0.05-0.06-0.07-0.14-0.07-0.22v-6.72c0-0.38-0.04-0.73-0.11-1.04c-0.07-0.31-0.18-0.58-0.33-0.81c-0.15-0.22-0.33-0.4-0.56-0.52
			c-0.22-0.12-0.49-0.19-0.81-0.19c-0.38,0-0.77,0.15-1.16,0.44c-0.39,0.3-0.81,0.73-1.27,1.3v7.54c0,0.09-0.03,0.16-0.08,0.22
			c-0.05,0.07-0.14,0.12-0.26,0.16c-0.12,0.04-0.29,0.07-0.49,0.09c-0.2,0.02-0.46,0.03-0.76,0.03c-0.31,0-0.57-0.01-0.78-0.03
			c-0.2-0.02-0.37-0.05-0.49-0.09c-0.12-0.04-0.21-0.09-0.26-0.16c-0.05-0.06-0.08-0.14-0.08-0.22v-6.72c0-0.38-0.04-0.73-0.11-1.04
			c-0.07-0.31-0.18-0.58-0.32-0.81c-0.14-0.22-0.33-0.4-0.56-0.52c-0.23-0.12-0.5-0.19-0.8-0.19c-0.39,0-0.78,0.15-1.17,0.44
			c-0.39,0.3-0.81,0.73-1.26,1.3v7.54c0,0.09-0.03,0.16-0.08,0.22c-0.05,0.07-0.14,0.12-0.26,0.16c-0.12,0.04-0.29,0.07-0.49,0.09
			c-0.2,0.02-0.46,0.03-0.78,0.03c-0.31,0-0.57-0.01-0.78-0.03c-0.2-0.02-0.37-0.05-0.49-0.09c-0.12-0.04-0.21-0.09-0.26-0.16
			c-0.05-0.06-0.08-0.14-0.08-0.22v-11.34c0-0.09,0.02-0.16,0.06-0.22c0.04-0.07,0.12-0.12,0.23-0.16c0.11-0.04,0.25-0.07,0.43-0.09
			c0.17-0.02,0.39-0.03,0.65-0.03c0.27,0,0.5,0.01,0.67,0.03c0.18,0.02,0.32,0.05,0.41,0.09s0.17,0.09,0.21,0.16
			c0.04,0.06,0.06,0.14,0.06,0.22v1.31c0.63-0.68,1.25-1.19,1.87-1.52c0.62-0.34,1.27-0.51,1.95-0.51c0.47,0,0.88,0.05,1.26,0.15
			c0.37,0.1,0.71,0.24,1,0.42c0.29,0.18,0.54,0.4,0.76,0.66c0.21,0.25,0.39,0.54,0.53,0.85c0.34-0.36,0.67-0.68,1-0.94
			c0.33-0.26,0.65-0.48,0.97-0.64c0.32-0.16,0.64-0.29,0.95-0.37c0.32-0.08,0.64-0.12,0.97-0.12c0.75,0,1.39,0.13,1.91,0.38
			c0.52,0.25,0.93,0.6,1.25,1.04c0.32,0.44,0.54,0.95,0.68,1.53c0.14,0.58,0.2,1.2,0.2,1.86V331.65z"/>
		<path class="st1" d="M220.81,331.69c0,0.12-0.04,0.21-0.13,0.28s-0.22,0.12-0.4,0.15c-0.18,0.03-0.45,0.04-0.81,0.04
			c-0.38,0-0.66-0.01-0.83-0.04c-0.17-0.03-0.3-0.08-0.37-0.15c-0.07-0.07-0.11-0.16-0.11-0.28v-0.9c-0.47,0.5-1,0.89-1.59,1.17
			c-0.6,0.28-1.26,0.42-1.99,0.42c-0.6,0-1.15-0.08-1.66-0.23c-0.5-0.16-0.94-0.39-1.31-0.7c-0.37-0.31-0.65-0.69-0.86-1.15
			c-0.2-0.46-0.3-0.99-0.3-1.6c0-0.66,0.13-1.23,0.39-1.72c0.26-0.49,0.64-0.89,1.16-1.21c0.51-0.32,1.15-0.55,1.91-0.71
			c0.76-0.15,1.65-0.23,2.66-0.23h1.11v-0.69c0-0.36-0.04-0.67-0.11-0.93c-0.07-0.27-0.19-0.49-0.36-0.67
			c-0.17-0.18-0.39-0.31-0.66-0.39c-0.28-0.09-0.62-0.13-1.02-0.13c-0.53,0-1.01,0.06-1.43,0.18s-0.79,0.25-1.11,0.39
			c-0.32,0.14-0.59,0.28-0.81,0.39c-0.22,0.12-0.39,0.18-0.53,0.18c-0.09,0-0.18-0.03-0.25-0.09c-0.07-0.06-0.13-0.14-0.18-0.25
			c-0.05-0.11-0.08-0.25-0.11-0.41s-0.04-0.34-0.04-0.53c0-0.26,0.02-0.47,0.06-0.62s0.12-0.29,0.24-0.41
			c0.12-0.12,0.33-0.26,0.62-0.41c0.3-0.15,0.64-0.29,1.04-0.41c0.4-0.13,0.83-0.23,1.3-0.31c0.47-0.08,0.95-0.12,1.46-0.12
			c0.89,0,1.65,0.09,2.28,0.26c0.63,0.17,1.15,0.44,1.56,0.8c0.41,0.36,0.7,0.82,0.89,1.39c0.19,0.57,0.28,1.24,0.28,2.02V331.69z
			 M217.68,326.84h-1.22c-0.52,0-0.96,0.04-1.32,0.11c-0.36,0.08-0.66,0.19-0.89,0.34c-0.23,0.15-0.4,0.34-0.5,0.55
			c-0.11,0.21-0.16,0.46-0.16,0.74c0,0.47,0.15,0.85,0.45,1.12c0.3,0.27,0.72,0.41,1.25,0.41c0.45,0,0.86-0.11,1.24-0.34
			s0.76-0.56,1.15-1V326.84z"/>
		<path class="st1" d="M234.83,331.65c0,0.09-0.03,0.16-0.08,0.22c-0.05,0.07-0.14,0.12-0.25,0.16s-0.28,0.07-0.49,0.09
			c-0.21,0.02-0.46,0.03-0.77,0.03c-0.31,0-0.57-0.01-0.78-0.03c-0.21-0.02-0.37-0.05-0.49-0.09c-0.12-0.04-0.2-0.09-0.25-0.16
			c-0.05-0.06-0.08-0.14-0.08-0.22v-6.47c0-0.55-0.04-0.98-0.12-1.3c-0.08-0.31-0.2-0.58-0.35-0.81c-0.15-0.22-0.35-0.4-0.59-0.52
			c-0.24-0.12-0.52-0.19-0.85-0.19c-0.41,0-0.82,0.15-1.23,0.44c-0.41,0.3-0.85,0.73-1.3,1.3v7.54c0,0.09-0.03,0.16-0.08,0.22
			c-0.05,0.07-0.14,0.12-0.26,0.16s-0.29,0.07-0.49,0.09c-0.2,0.02-0.46,0.03-0.78,0.03s-0.57-0.01-0.78-0.03
			c-0.2-0.02-0.37-0.05-0.49-0.09c-0.12-0.04-0.21-0.09-0.26-0.16c-0.05-0.06-0.08-0.14-0.08-0.22v-11.34
			c0-0.09,0.02-0.16,0.06-0.22c0.04-0.07,0.12-0.12,0.23-0.16s0.25-0.07,0.43-0.09c0.17-0.02,0.39-0.03,0.65-0.03
			c0.27,0,0.5,0.01,0.67,0.03c0.18,0.02,0.32,0.05,0.41,0.09s0.17,0.09,0.21,0.16c0.04,0.06,0.06,0.14,0.06,0.22v1.31
			c0.63-0.68,1.26-1.19,1.91-1.52c0.65-0.34,1.32-0.51,2.03-0.51c0.77,0,1.42,0.13,1.95,0.38c0.53,0.25,0.96,0.6,1.28,1.04
			c0.33,0.44,0.56,0.95,0.71,1.53c0.14,0.58,0.22,1.29,0.22,2.11V331.65z"/>
		<path class="st1" d="M246.55,329.85c0,0.22-0.01,0.4-0.02,0.55c-0.01,0.15-0.03,0.27-0.05,0.38c-0.02,0.1-0.05,0.18-0.08,0.25
			c-0.03,0.06-0.1,0.14-0.2,0.24c-0.1,0.1-0.28,0.22-0.52,0.36c-0.25,0.14-0.53,0.27-0.84,0.38c-0.31,0.11-0.65,0.2-1.02,0.27
			c-0.37,0.07-0.75,0.1-1.14,0.1c-0.87,0-1.65-0.14-2.32-0.41c-0.67-0.27-1.24-0.67-1.7-1.2c-0.46-0.53-0.8-1.17-1.04-1.94
			s-0.35-1.64-0.35-2.62c0-1.13,0.14-2.11,0.43-2.94c0.28-0.82,0.68-1.51,1.19-2.05c0.51-0.54,1.11-0.94,1.8-1.21
			c0.69-0.26,1.46-0.39,2.29-0.39c0.34,0,0.67,0.03,1,0.09c0.33,0.06,0.63,0.14,0.91,0.24s0.54,0.22,0.76,0.34s0.38,0.24,0.48,0.33
			c0.09,0.09,0.16,0.17,0.2,0.23c0.04,0.07,0.07,0.15,0.09,0.25c0.02,0.1,0.04,0.23,0.05,0.38c0.01,0.15,0.02,0.33,0.02,0.54
			c0,0.49-0.04,0.84-0.13,1.04c-0.08,0.2-0.2,0.3-0.33,0.3c-0.14,0-0.3-0.06-0.46-0.18c-0.16-0.12-0.35-0.25-0.57-0.39
			c-0.22-0.14-0.48-0.28-0.79-0.39c-0.3-0.12-0.67-0.18-1.09-0.18c-0.83,0-1.47,0.32-1.91,0.96c-0.44,0.64-0.66,1.58-0.66,2.82
			c0,0.61,0.06,1.15,0.17,1.61s0.27,0.86,0.49,1.17s0.49,0.55,0.81,0.7c0.33,0.16,0.71,0.24,1.14,0.24c0.44,0,0.82-0.07,1.14-0.2
			c0.32-0.13,0.6-0.28,0.83-0.44c0.24-0.16,0.44-0.31,0.6-0.44c0.16-0.13,0.3-0.2,0.41-0.2c0.08,0,0.14,0.02,0.19,0.06
			c0.05,0.04,0.09,0.12,0.12,0.23c0.03,0.12,0.05,0.26,0.07,0.44C246.54,329.34,246.55,329.57,246.55,329.85z"/>
		<path class="st1" d="M259.33,325.66c0,0.39-0.09,0.68-0.26,0.86s-0.41,0.28-0.72,0.28h-6.9c0,0.48,0.06,0.92,0.17,1.31
			c0.11,0.4,0.3,0.73,0.55,1.01c0.25,0.27,0.57,0.48,0.97,0.63c0.39,0.14,0.87,0.22,1.42,0.22c0.56,0,1.05-0.04,1.47-0.12
			c0.42-0.08,0.79-0.17,1.1-0.27c0.31-0.1,0.57-0.19,0.77-0.27c0.2-0.08,0.37-0.12,0.5-0.12c0.08,0,0.14,0.01,0.19,0.04
			c0.05,0.03,0.09,0.08,0.13,0.16c0.03,0.08,0.06,0.19,0.07,0.32c0.01,0.14,0.02,0.32,0.02,0.53c0,0.19,0,0.34-0.01,0.48
			c-0.01,0.13-0.02,0.24-0.04,0.34c-0.02,0.09-0.04,0.17-0.08,0.23c-0.03,0.07-0.08,0.13-0.13,0.19c-0.06,0.06-0.21,0.14-0.45,0.24
			c-0.25,0.1-0.56,0.2-0.94,0.3c-0.38,0.1-0.82,0.18-1.31,0.25c-0.49,0.07-1.02,0.11-1.58,0.11c-1.01,0-1.89-0.13-2.65-0.38
			s-1.39-0.64-1.9-1.16c-0.51-0.52-0.89-1.17-1.14-1.96c-0.25-0.79-0.37-1.71-0.37-2.77c0-1.01,0.13-1.92,0.39-2.73
			c0.26-0.81,0.64-1.49,1.14-2.06c0.5-0.56,1.11-0.99,1.82-1.29c0.72-0.3,1.52-0.44,2.42-0.44c0.95,0,1.76,0.14,2.43,0.42
			c0.67,0.28,1.23,0.67,1.66,1.16c0.43,0.5,0.75,1.08,0.95,1.76c0.2,0.68,0.3,1.41,0.3,2.21V325.66z M256.23,324.74
			c0.03-0.9-0.15-1.6-0.54-2.12c-0.39-0.51-0.98-0.77-1.79-0.77c-0.41,0-0.76,0.08-1.06,0.23c-0.3,0.15-0.55,0.36-0.75,0.62
			c-0.2,0.26-0.35,0.56-0.46,0.91c-0.11,0.35-0.17,0.73-0.18,1.13H256.23z"/>
	</g>
</g>
</svg>
