<?xml version="1.0" encoding="utf-8"?>
<!-- Generator: Adobe Illustrator 24.1.2, SVG Export Plug-In . SVG Version: 6.00 Build 0)  -->
<svg version="1.1" xmlns="http://www.w3.org/2000/svg" xmlns:xlink="http://www.w3.org/1999/xlink" x="0px" y="0px"
	 viewBox="0 0 595.28 841.89" style="enable-background:new 0 0 595.28 841.89;" xml:space="preserve">
<style type="text/css">
	.st0{fill:#C16328;}
</style>
<g id="Layer_1">
</g>
<g id="Layer_2">
	<g>
		<polygon class="st0" points="216.54,339.73 272.46,339.73 361.06,440.33 361.06,502.16 		"/>
		<path class="st0" d="M273.02,502.16h-56.49c5.42-7.59,10.85-17.12,14.95-28.61c2.67-7.43,4.32-14.41,5.33-20.66
			c5.78,13.87,12.71,23.7,16.37,28.49C257.64,487.25,264.08,494.68,273.02,502.16z"/>
		<path class="st0" d="M331.13,339.73h47.61c-4.57,6.4-9.14,14.43-12.6,24.11c-2.25,6.26-3.64,12.15-4.49,17.42
			c-4.87-11.69-10.72-19.98-13.8-24.02C344.09,352.29,338.66,346.03,331.13,339.73z"/>
	</g>
</g>
</svg>
