<?xml version="1.0" encoding="utf-8"?>
<!-- Generator: Adobe Illustrator 24.1.2, SVG Export Plug-In . SVG Version: 6.00 Build 0)  -->
<svg version="1.1" xmlns="http://www.w3.org/2000/svg" xmlns:xlink="http://www.w3.org/1999/xlink" x="0px" y="0px"
	 viewBox="0 0 162.2 162.43" style="enable-background:new 0 0 162.2 162.43;" xml:space="preserve">
<style type="text/css">
	.st0{fill:#C16328;}
</style>
<g id="Layer_1">
</g>
<g id="Layer_2">
	<g>
		<polygon class="st0" points="0,0 55.93,0 144.52,100.59 144.52,162.43 		"/>
		<path class="st0" d="M56.49,162.43H0c5.42-7.59,10.85-17.12,14.95-28.61c2.67-7.43,4.32-14.41,5.33-20.66
			c5.78,13.87,12.71,23.7,16.37,28.49C41.11,147.52,47.55,154.95,56.49,162.43z"/>
		<path class="st0" d="M114.59,0l47.61,0c-4.57,6.4-9.14,14.43-12.6,24.11c-2.25,6.26-3.64,12.15-4.49,17.42
			c-4.87-11.69-10.72-19.98-13.8-24.02C127.55,12.56,122.13,6.3,114.59,0z"/>
	</g>
</g>
</svg>
